Coordinates
version=1
nRows=13
nColumns=36
inDegrees=yes

Units are S.I. units (second, meters, Newtons, ...)
If the header above contains a line with 'inDegrees', this indicates whether rotational values are in degrees (yes) or radians (no).

endheader
time	pelvis_tilt	pelvis_list	pelvis_rotation	pelvis_tx	pelvis_ty	pelvis_tz	hip_flexion_r	hip_adduction_r	hip_rotation_r	knee_angle_r	knee_angle_r_beta	ankle_angle_r	subtalar_angle_r	mtp_angle_r	hip_flexion_l	hip_adduction_l	hip_rotation_l	knee_angle_l	knee_angle_l_beta	ankle_angle_l	subtalar_angle_l	mtp_angle_l	lumbar_extension	lumbar_bending	lumbar_rotation	arm_flex_r	arm_add_r	arm_rot_r	elbow_flex_r	pro_sup_r	arm_flex_l	arm_add_l	arm_rot_l	elbow_flex_l	pro_sup_l
      2.46666670	    -26.20635898	     -2.35407576	     -2.98261483	      0.73705406	      0.84109316	      0.33587817	     53.01312455	      8.27212562	     -3.49493037	     47.03797698	      0.82096757	     19.00173984	    -18.46323165	     -7.49999987	     75.84966941	     -1.35827050	      9.74272924	     43.72308547	      0.76311180	     -1.36522938	     -2.99175707	     -7.49999987	    -14.03563079	      1.98687360	      1.70716633	     69.26125812	    -12.26276014	     77.84891336	    122.01453685	     96.05586765	     59.45129969	      5.07889948	     63.15916555	    117.10653417	    104.75377433
      2.48333330	    -25.51872622	     -2.30093402	     -2.23855078	      0.74444810	      0.84940351	      0.33353975	     50.68858322	      7.87046756	     -2.77286994	     43.96122490	      0.76726812	     16.85440436	    -20.08656723	     -7.49999987	     73.75307222	     -1.28794978	     10.25557766	     45.12481134	      0.78757653	     -0.74486921	     -5.24388013	     -7.49999987	    -14.03002170	      1.54561465	      0.97019091	     67.90793528	    -12.62869641	     77.43454425	    121.70810077	     96.02415931	     58.79515263	      5.43075125	     62.98602647	    116.38057610	    104.42278895
      2.50000000	    -24.31854570	     -2.39528721	     -1.84305642	      0.74950722	      0.85506003	      0.33650525	     48.15601150	      7.86560724	     -2.03999417	     41.30193512	      0.72085476	     14.14197246	    -21.62338384	     -7.49999987	     71.28848110	     -1.76413481	     10.36112581	     46.18506137	      0.80608139	     -1.28205461	     -7.01982637	     -7.49999987	    -14.34800648	      0.73569000	      1.25186925	     66.83798882	    -13.66337199	     75.43390245	    121.59563267	    100.42534295	     59.46591326	      6.12309614	     63.18685210	    114.71652210	    106.08309725
      2.51666670	    -23.79772713	     -2.51797914	     -1.64103133	      0.75608617	      0.86304307	      0.33484861	     46.44837307	      7.80940510	     -1.68527692	     39.15690791	      0.68341697	     12.32832666	    -21.74292627	     -7.49999987	     69.22899180	     -2.46607986	     10.40793535	     46.97730282	      0.81990861	     -2.09744748	     -8.59119670	     -7.49999987	    -13.88396447	      0.58968045	      1.28297651	     66.54843273	    -13.34047738	     74.51732304	    121.56718580	    100.39980071	     58.78059385	      5.90878894	     63.72388133	    114.56376517	    105.86729957
      2.53333330	    -22.65427034	     -2.48619708	     -1.64660042	      0.75617935	      0.87294666	      0.32916921	     43.75188345	      7.74050211	     -1.14492210	     36.69698517	      0.64048322	     10.24890637	    -22.52993152	     -7.49999987	     66.75789418	     -2.87143067	     10.62209924	     47.65349093	      0.83171032	     -2.57717501	    -10.58091023	     -7.49999987	    -14.56077256	      0.22476751	      1.66752396	     65.28099650	    -14.22399327	     72.42236426	    122.15203120	    101.72318288	     58.75763780	      6.55425801	     64.13148318	    113.22908220	    105.78777615
      2.55000000	    -21.84687609	     -2.27504380	     -1.43366625	      0.76921635	      0.87850517	      0.33088698	     40.95650059	      7.58979131	     -0.84785059	     34.46597993	      0.60154483	      9.32455236	    -22.54913969	     -7.49999987	     63.79212841	     -3.13882129	     10.65466977	     47.81870730	      0.83459389	     -4.32028506	    -12.59866400	     -7.49999987	    -13.87781615	     -0.24894497	      0.90850499	     62.96153685	    -13.72738860	     71.52576334	    121.68464947	    101.90861767	     57.73947624	      6.48855645	     63.84620502	    113.28130227	    105.59849053
      2.56666670	    -21.14449486	     -1.90698815	     -1.21533565	      0.78619930	      0.88412024	      0.32956343	     37.63394761	      7.31761451	     -0.65685292	     31.79746775	      0.55497051	      8.85877159	    -22.49252774	     -7.49999987	     60.37221320	     -3.30621304	     10.46779258	     46.96042373	      0.81961401	     -5.77863141	    -14.34701935	     -7.49999987	    -12.63391379	     -0.70006002	     -0.02636287	     59.90291846	    -12.96919934	     71.63613595	    120.74980565	    102.36987722	     56.43084025	      5.94914343	     64.34415061	    112.98869611	    105.56643419
      2.58333330	    -21.04247729	     -1.71151708	     -1.29003064	      0.78092214	      0.89214994	      0.32618166	     36.10245797	      7.06777666	     -0.43621414	     29.77935076	      0.51974772	      7.50957176	    -22.58661448	     -7.49999987	     58.41210073	     -3.61007322	      9.98012622	     45.13246618	      0.78771013	     -5.57658827	    -14.59127237	     -7.49999987	    -12.18017741	     -0.81823468	     -0.16484878	     59.45439139	    -12.77654487	     70.28850545	    120.40602656	    102.94240507	     57.09228241	      5.29785884	     65.10634114	    113.00380313	    105.70834497
      2.60000000	    -21.11193452	     -1.69546195	     -1.33838589	      0.78014854	      0.89495300	      0.32559731	     35.24792641	      7.05519296	     -0.43829978	     28.24070279	      0.49289325	      6.53632113	    -22.71133380	     -7.49999987	     56.46630319	     -3.99604635	      9.50271925	     42.35345690	      0.73920727	     -6.07218986	    -14.38913750	     -7.49999987	    -11.47205029	     -0.88925150	     -0.31551784	     59.47218181	    -12.32448754	     68.47355548	    120.03795734	    103.18354253	     57.80919028	      4.90374912	     65.27907856	    112.70557681	    105.70949514
      2.61666670	    -21.33706427	     -1.87863066	     -1.33707833	      0.78728330	      0.90032820	      0.32348896	     34.62901305	      7.18077184	     -0.38878123	     26.89703236	      0.46944177	      6.00338635	    -22.63155827	     -7.49999987	     54.78359018	     -4.41974961	      9.25930741	     39.50010278	      0.68940685	     -6.61719040	    -13.93751822	     -7.49999987	    -10.38239216	     -0.56819741	     -0.49733932	     58.83222835	    -12.22871556	     68.22161872	    119.66837443	    103.22727063	     57.48663835	      4.82587670	     65.47247853	    112.49728241	    105.67814497
      2.63333330	    -21.13760984	     -1.94530569	     -1.56921145	      0.78716670	      0.90312223	      0.32289643	     33.41806018	      7.39439944	      0.16514886	     25.14517972	      0.43886618	      5.30755514	    -23.09207813	     -7.49999987	     52.86855039	     -4.79600500	      9.10818153	     36.54227573	      0.63778303	     -6.88017361	    -13.62280027	     -7.49999987	     -9.67402956	     -0.46948336	     -0.72391180	     58.38847126	    -11.71855233	     67.08177624	    118.93355750	    103.42403572	     57.67735003	      5.12546486	     64.76065921	    112.69747909	    105.44451426
      2.65000000	    -21.40950661	     -1.75674671	     -1.96024336	      0.78887743	      0.90307510	      0.31783148	     32.93476090	      7.29945225	      0.64664574	     23.93824995	      0.41780128	      5.17911808	    -22.90731693	     -7.49999987	     51.97728605	     -4.94526736	      8.81523498	     34.69921834	      0.60561561	     -6.27448936	    -13.24128078	     -7.49999987	     -8.67941016	     -0.41390145	     -0.74300428	     58.93471080	    -11.42226789	     67.19952849	    119.92245097	    103.52367678	     57.70582371	      5.58064525	     64.41027654	    112.94576863	    105.35795665
      2.66666670	    -21.17288471	     -1.32243525	     -2.41608803	      0.80069735	      0.90938077	      0.31924230	     30.89919839	      7.04703654	      1.46220142	     21.44714775	      0.37432334	      5.02404837	    -22.63242131	     -7.49999987	     49.58420989	     -5.04235802	      8.53627059	     31.98742987	      0.55828597	     -5.33527056	    -12.67918263	     -7.49999987	     -8.16415120	     -0.84165178	     -0.48048285	     58.62163289	    -11.08543686	     67.11411720	    120.81254990	    103.68430348	     56.88747172	      5.60509650	     64.46164160	    113.76464634	    105.29327119
